<svg width="737" height="375" xmlns="http://www.w3.org/2000/svg">

 <g>
  <title>Layer 1</title>
  <path stroke="#000" id="svg_1" d="m34.21407,207.49557c-25.17238,-9.40641 -33.53589,-37.33336 -33.84355,-60.62057c-3.41109,-17.24258 18.03687,-29.92457 10.97596,-47.6542c-2.67948,-26.21006 5.7419,-52.1703 18.32599,-75.26638c0.39796,-14.83937 13.33225,-20.59894 27.42446,-19.75426c45.53194,-5.44404 91.88678,-5.59666 137.436,-0.45327c27.18236,4.75093 48.84487,22.30217 71.8327,35.55885c14.25888,9.96861 30.90504,16.53597 45.24705,26.11723c15.48969,12.26191 30.04199,25.93924 40.77539,42.20513c3.86184,16.26067 9.04566,32.42765 11.69965,48.79577c5.38772,15.31656 -5.64149,24.95069 -13.98472,35.5915c-12.6709,14.5097 -36.64907,20.23496 -54.79564,12.44406c-12.60384,-4.33298 -17.24268,-22.74301 -31.61205,-21.47035c-54.1749,-0.76124 -108.34979,-1.52247 -162.5247,-2.28364c-12.55041,15.51867 -29.9024,32.47864 -52.59164,30.06349c-4.93003,-0.38867 -9.77682,-1.54379 -14.36492,-3.27336l0.00002,0z" fill="#000000"/>
  <path stroke="#000" id="svg_2" d="m317.2039,344.67655c-12.47277,-15.62206 -35.86071,1.30749 -38.681,-27.20836c-5.42869,-25.33983 11.15554,-45.13687 22.1912,-60.48055c19.30666,-14.30709 41.56844,-16.03713 62.44754,-22.59316c25.0199,-5.40096 51.06984,-10.01714 72.63816,-31.45541c24.56588,-22.85989 51.92623,-41.88453 81.52141,-41.54748c40.77721,-2.10208 82.96672,-0.06552 120.66775,25.83171c23.69838,15.90805 49.15997,23.99312 74.45163,31.77511c21.5194,4.20684 16.51496,38.72807 23.67246,60.01028c5.46378,24.43859 -6.34749,48.76418 -23.63617,49.54122c-18.27965,6.18014 -39.67319,6.78841 -52.434,30.52052c-13.07181,21.52402 -36.54404,20.78102 -49.85552,0.21901c-5.50349,-5.08276 -9.17778,-17.38866 -16.50641,-15.26449c-68.3365,0.55074 -136.70824,-1.45132 -205.0149,1.80982c-17.84901,-2.11366 -25.26281,30.83305 -44.2488,28.543c-9.72112,0.44857 -18.92685,-22.90136 -27.21335,-29.70124l0,0.00002z" fill="#000000"/>
  <path id="svg_4" d="m430.47986,123.81187c-10.49351,0 -19,8.50638 -19,18.99999c0,10.4934 8.50649,19 19,19c10.49363,0 19,-8.5066 19,-19c0,-10.49362 -8.50637,-18.99999 -19,-18.99999zm1.64068,29.30114l0,2.6762l-2.55964,0l0,-2.64605c-4.20032,-0.57523 -6.04097,-4.0264 -6.04097,-4.0264l2.61723,-2.18699c0,0 1.66811,2.9061 4.68793,2.9061c1.66798,0 2.93351,-0.89287 2.93351,-2.41737c0,-3.56735 -9.60721,-3.13477 -9.60721,-9.75085c0,-2.87619 2.27202,-4.94823 5.40815,-5.43696l0,-2.67593l2.55975,0l0,2.67445c2.18576,0.28774 4.77419,1.4382 4.77419,3.91271l0,1.89823l-3.39382,0l0,-0.92029c0,-0.94902 -1.2092,-1.58186 -2.56088,-1.58186c-1.72558,0 -2.99112,0.86275 -2.99112,2.0708c0,3.65242 9.6072,2.76099 9.6072,9.69352c0.00137,2.84848 -2.12689,5.32198 -5.43432,5.8107l0,0z" stroke="#000" fill="#000000"/>
  <path stroke="#000" id="svg_9" d="m71.77212,35.65274l55.61574,0l0,0c7.28582,0 13.19213,9.40202 13.19213,21c0,11.59797 -5.90631,20.99999 -13.19213,20.99999l-55.61574,0l0,0c-7.28581,0 -13.19213,-9.40202 -13.19213,-20.99999c0,-11.59798 5.90632,-21 13.19213,-21z" fill="#e5e5e5"/>
  <path transform="rotate(180 183.07 58.4021)" id="svg_12" d="m165.73664,38.90212l43.33333,0c-4.78647,0 -8.66666,8.73045 -8.66666,19.50001c0,10.76956 3.8802,19.50001 8.66666,19.50001l-43.33333,0l0,0c-4.78647,0 -8.66666,-8.73045 -8.66666,-19.50001c0,-10.76956 3.8802,-19.50001 8.66666,-19.50001z" stroke="#000" fill="#e5e5e5"/>
  <ellipse ry="27.5" rx="27.5" id="svg_15" cy="171.40212" cx="49.99498" stroke="#000" fill="#b2b2b2"/>
  <ellipse ry="26.5" rx="26.5" id="svg_17" cy="171.40212" cx="314.99498" stroke="#000" fill="#b2b2b2"/>
  <path stroke="#000" id="svg_18" d="m544.52832,189.42149l37.30324,0l0,0c4.88683,0 8.84838,6.04416 8.84838,13.5c0,7.45584 -3.96155,13.5 -8.84838,13.5l-37.30324,0l0,0c-4.88683,0 -8.84838,-6.04416 -8.84838,-13.5c0,-7.45585 3.96156,-13.5 8.84838,-13.5z" fill="#ffffff"/>
  <path stroke="#000" id="svg_19" d="m490.54498,189.90375l37.50003,0c-4.14214,0 -7.50001,6.04416 -7.50001,13.5c0,7.45584 3.35787,13.5 7.50001,13.5l-37.50003,0l0,0c-4.14214,0 -7.50001,-6.04416 -7.50001,-13.5c0,-7.45584 3.35787,-13.5 7.50001,-13.5z" fill="#ffffff"/>
  <path stroke="#000" id="svg_21" d="m461.08003,262.67086l84.99997,-5.2l0,26l-84.99997,0l0,-20.8z" fill="#b2b2b2"/>
 </g>
</svg>