<svg width="567" height="517" xmlns="http://www.w3.org/2000/svg" data-name="Layer 1">

 <g>
  <title>Layer 1</title>
  <path transform="rotate(-16.2439 256.078 134.001)" id="svg_1" d="m8.57788,111.50073l495,0l0,45l-495,0l0,-45z" opacity="undefined" fill="#000000"/>
  <path id="svg_2" fill="#3f3d56" d="m70.32594,384.47814l-70.04651,-240.41309a7.0001,7.0001 0 0 1 4.76257,-8.67871l463.71826,-135.1084a7.00645,7.00645 0 0 1 8.67871,4.76221l62.05591,212.98877l-1.92016,0.55957l-62.05591,-212.98877a5.00865,5.00865 0 0 0 -6.19922,-3.40186l-463.71814,135.1084a5.00029,5.00029 0 0 0 -3.40186,6.19922l70.04651,240.41309l-1.92016,0.55957z"/>
  <path id="svg_3" fill="#000000" d="m436.8589,219.01866a6.51233,6.51233 0 0 1 -6.24341,-4.6831l-11.74854,-40.32324a6.50734,6.50734 0 0 1 4.42212,-8.0586l40.32349,-11.74853a6.50722,6.50722 0 0 1 8.05859,4.42285l11.74851,40.32324a6.50733,6.50733 0 0 1 -4.42212,8.05859l-40.32349,11.74854a6.47854,6.47854 0 0 1 -1.81515,0.26025z"/>
  <path id="svg_4" fill="#000000" d="m69.24317,144.80866a11.691,11.691 0 0 0 -0.43017,-1.22a11.99972,11.99972 0 0 0 -22.90967,6.67a11.37989,11.37989 0 0 0 0.29,1.26a12.01924,12.01924 0 0 0 11.52978,8.64a11.74908,11.74908 0 0 0 3.3501,-0.48a12.01262,12.01262 0 0 0 8.16996,-14.87zm-8.73,12.95a10.01322,10.01322 0 0 1 -12.3999,-6.8a11.435,11.435 0 0 1 -0.28027,-1.26a9.99681,9.99681 0 0 1 19.04,-5.54a8.33837,8.33837 0 0 1 0.45019,1.21a10.00446,10.00446 0 0 1 -6.81,12.39006l-0.00002,-0.00006z"/>
  <path id="svg_5" fill="#000000" d="m39.81074,153.37866a11.00221,11.00221 0 0 1 4.20834,-12.0571a11,11 0 1 0 5.81753,19.96694a11.00221,11.00221 0 0 1 -10.02587,-7.90984z"/>
  <path id="svg_6" fill="#ccc" d="m350.67286,202.93871a6.04249,6.04249 0 0 0 -7.44971,-4.2l-66.39013,18.56995l-7.14991,2l44.89991,0l7.1499,-2l24.75,-6.92a6.04864,6.04864 0 0 0 4.18994,-7.44995z"/>
  <path id="svg_7" fill="#ccc" d="m303.70313,189.06871a6.04513,6.04513 0 0 0 -7.45019,-4.19l-99.61963,27.86a6.06838,6.06838 0 0 0 -4.37012,6.57l25.79,0l7.15967,-2l74.30029,-20.78a6.05544,6.05544 0 0 0 4.18998,-7.46z"/>
  <path id="svg_8" fill="#3f3d56" d="m560.16713,217.30643l-483.00047,0a7.00787,7.00787 0 0 0 -7,7l0,286a7.00755,7.00755 0 0 0 7,7l483.00047,0a7.00786,7.00786 0 0 0 7,-7l0,-286a7.00818,7.00818 0 0 0 -7,-7zm5,293a5.00181,5.00181 0 0 1 -5,5l-483.00047,0a5.0018,5.0018 0 0 1 -5,-5l0,-286a5.00213,5.00213 0 0 1 5,-5l483.00047,0a5.00213,5.00213 0 0 1 5,5l0,286z"/>
  <path id="svg_9" fill="#000000" d="m124.1631,256.30866a12,12 0 1 1 12,-12a12.01375,12.01375 0 0 1 -12,12zm0,-22a10,10 0 1 0 10,10a10.0113,10.0113 0 0 0 -10,-10z"/>
  <path id="svg_10" fill="#000000" d="m105.51092,244.30866a11.00221,11.00221 0 0 1 7.413,-10.39858a11,11 0 1 0 0,20.79717a11.00222,11.00222 0 0 1 -7.413,-10.39859z"/>
  <path id="svg_11" fill="#000000" d="m172.80678,386.08671a9.01031,9.01031 0 0 1 -9,-9l0,-27a9,9 0 0 1 18,0l0,27a9.01032,9.01032 0 0 1 -9,9z"/>
  <path id="svg_12" fill="#000000" d="m196.80678,386.08671a9.01031,9.01031 0 0 1 -9,-9l0,-27a9,9 0 0 1 18,0l0,27a9.01032,9.01032 0 0 1 -9,9z"/>
  <path id="svg_13" fill="#000000" d="m220.80678,386.08671a9.01031,9.01031 0 0 1 -9,-9l0,-27a9,9 0 0 1 18,0l0,27a9.01032,9.01032 0 0 1 -9,9z"/>
  <path id="svg_14" fill="#000000" d="m257.80678,386.08671a9.01031,9.01031 0 0 1 -9,-9l0,-27a9,9 0 0 1 18,0l0,27a9.01032,9.01032 0 0 1 -9,9z"/>
  <path id="svg_15" fill="#000000" d="m281.80678,386.08671a9.01031,9.01031 0 0 1 -9,-9l0,-27a9,9 0 0 1 18,0l0,27a9.01032,9.01032 0 0 1 -9,9z"/>
  <path id="svg_16" fill="#000000" d="m305.80678,386.08671a9.01031,9.01031 0 0 1 -9,-9l0,-27a9,9 0 0 1 18,0l0,27a9.01032,9.01032 0 0 1 -9,9z"/>
  <path id="svg_17" fill="#000000" d="m342.80678,386.08671a9.01031,9.01031 0 0 1 -9,-9l0,-27a9,9 0 0 1 18,0l0,27a9.01032,9.01032 0 0 1 -9,9z"/>
  <path id="svg_18" fill="#000000" d="m366.80678,386.08671a9.01031,9.01031 0 0 1 -9,-9l0,-27a9,9 0 0 1 18,0l0,27a9.01032,9.01032 0 0 1 -9,9z"/>
  <path id="svg_19" fill="#000000" d="m390.80678,386.08671a9.01031,9.01031 0 0 1 -9,-9l0,-27a9,9 0 0 1 18,0l0,27a9.01032,9.01032 0 0 1 -9,9z"/>
  <path id="svg_20" fill="#000000" d="m427.80678,386.08671a9.01031,9.01031 0 0 1 -9,-9l0,-27a9,9 0 0 1 18,0l0,27a9.01032,9.01032 0 0 1 -9,9z"/>
  <path id="svg_21" fill="#000000" d="m451.80678,386.08671a9.01031,9.01031 0 0 1 -9,-9l0,-27a9,9 0 0 1 18,0l0,27a9.01032,9.01032 0 0 1 -9,9z"/>
  <path id="svg_22" fill="#000000" d="m475.80678,386.08671a9.01031,9.01031 0 0 1 -9,-9l0,-27a9,9 0 0 1 18,0l0,27a9.01032,9.01032 0 0 1 -9,9z"/>
  <path id="svg_23" fill="#e6e6e6" d="m233.8248,486.25366l-129.44031,0a6.04736,6.04736 0 1 1 0,-12.09472l129.44031,0a6.04736,6.04736 0 1 1 0,12.09472z"/>
  <path id="svg_24" fill="#e6e6e6" d="m192.3248,460.25366l-46.44031,0a6.04736,6.04736 0 1 1 0,-12.09472l46.44031,0a6.04736,6.04736 0 1 1 0,12.09472z"/>
  <rect id="svg_25" fill="#3f3d56" height="2" width="493" y="277.08671" x="71.80676"/>
  <text stroke-width="4" transform="rotate(-16.4875 238.897 89.7254) matrix(1.17858 0 0 1 -29.1889 -3.7544)" stroke="null" xml:space="preserve" text-anchor="start" font-family="'Urbanist'" font-size="20" id="svg_26" y="100.34193" x="163.80592" fill="#000000">Trinity Finance</text>
  <text xml:space="preserve" text-anchor="start" font-family="'Urbanist'" font-size="20" id="svg_27" y="252.34193" x="204.4115" stroke-width="10" stroke="null" fill="#000000">https://trinity1357.github.io</text>
 </g>
</svg>