<?xml version="1.0" standalone="no"?>
<!DOCTYPE svg PUBLIC "-//W3C//DTD SVG 20010904//EN"
 "http://www.w3.org/TR/2001/REC-SVG-20010904/DTD/svg10.dtd">
<svg version="1.0" xmlns="http://www.w3.org/2000/svg"
 width="1080.000000pt" height="1080.000000pt" viewBox="0 0 1080.000000 1080.000000"
 preserveAspectRatio="xMidYMid meet">
<metadata>
Created by potrace 1.14, written by Peter Selinger 2001-2017
</metadata>
<g transform="translate(0.000000,1080.000000) scale(0.100000,-0.100000)"
fill="#000000" stroke="none">
<path d="M855 10054 c-14 -14 -15 -66 -13 -485 3 -434 4 -470 21 -486 17 -17
94 -18 1485 -23 807 -3 1473 -9 1480 -13 9 -7 12 -846 12 -4142 l0 -4134 22
-15 c20 -14 92 -16 581 -16 366 0 565 4 578 10 19 11 19 68 19 4144 0 3833 1
4135 17 4147 13 12 261 15 1489 19 1190 4 1476 7 1486 18 18 18 25 957 7 978
-10 12 -551 14 -3590 14 -3266 0 -3579 -1 -3594 -16z"/>
<path d="M5336 6344 c-14 -14 -16 -282 -16 -2803 0 -2347 2 -2790 14 -2800 9
-8 114 -11 367 -9 l354 3 5 1127 c4 816 8 1130 16 1138 8 8 191 11 655 11
l644 -1 21 -24 c12 -13 53 -84 91 -157 95 -180 144 -272 218 -409 35 -63 79
-146 100 -185 20 -38 50 -92 65 -120 29 -53 64 -119 210 -395 116 -219 165
-311 200 -375 15 -27 45 -81 65 -120 21 -38 50 -92 65 -120 15 -27 47 -86 70
-130 91 -170 121 -224 133 -233 15 -11 533 -22 677 -13 96 5 105 8 108 27 2
11 -24 69 -58 129 -33 60 -60 110 -60 111 0 1 -22 41 -50 89 -27 48 -50 88
-50 90 0 2 -14 28 -31 57 -17 29 -44 76 -59 103 -71 132 -375 682 -429 779
-33 60 -61 111 -61 112 0 2 -15 29 -34 61 -18 32 -46 81 -61 108 -15 28 -65
118 -110 200 -223 400 -302 551 -298 563 3 7 51 34 107 61 332 157 572 369
742 654 56 96 134 283 158 383 75 315 57 730 -44 1039 -123 377 -399 679 -777
851 -108 49 -110 50 -181 73 -191 64 -403 104 -660 126 -148 12 -364 15 -1137
15 -854 0 -955 -2 -969 -16z m2211 -622 c388 -76 618 -239 759 -537 69 -146
93 -258 101 -465 6 -187 -4 -275 -48 -403 -79 -234 -273 -459 -487 -566 -97
-49 -235 -92 -367 -114 -110 -18 -175 -20 -762 -24 -455 -3 -648 -1 -662 7
-21 11 -21 11 -21 1058 0 825 3 1051 13 1061 9 10 153 11 687 8 645 -3 680 -4
787 -25z"/>
</g>
</svg>
